<?xml version="1.0"?><svg width="500" height="500" xmlns="http://www.w3.org/2000/svg" xmlns:xlink="http://www.w3.org/1999/xlink">
 <title>cheap cheap logo</title>
 <defs>
  <linearGradient y2="0.499963" x2="1" y1="0.499963" x1="0.000001" id="SVGID_4_">
   <stop stop-color="#F89A1C" offset="0"/>
   <stop stop-color="#CF4B27" offset="1"/>
  </linearGradient>
  <linearGradient y2="0" x2="1" y1="0" x1="0" id="svg_18">
   <stop offset="0.375" stop-color="#2e829e"/>
   <stop offset="1" stop-opacity="0.996094" stop-color="#dee506"/>
  </linearGradient>
  <linearGradient y2="0" x2="1" y1="0" x1="0" id="svg_20">
   <stop offset="0.144531" stop-color="#2e829e"/>
   <stop offset="1" stop-opacity="0.992188" stop-color="#ffffff"/>
  </linearGradient>
 </defs>
 <g>
  <title>Layer 1</title>
  <g display="none" id="Ref">
   <image id="svg_1" transform="matrix(0.846 0 0 0.846 36.8574 -0.9312)" xlink:href="Spring_Chick_Ref.jpg" height="592" width="503"/>
  </g>
  <g id="Outline">
   <g id="Background">
    <path fill="black" id="svg_2" d="m114,172.345001c0,0 18.964996,31.895996 30.171997,37.931c-10.345001,15.516998 -25,53.447998 -25.862,71.550995c2.586006,14.654999 26.723999,66.380005 35.345001,76.725006s16.378998,9.483002 18.964996,8.621002c6.896011,3.447998 35.345001,11.205994 35.345001,11.205994s6.895996,33.621002 -1.723999,44.828003c-10.345001,6.033997 -45.688995,7.759003 -54.309998,11.207001s-9.483002,11.207001 -6.035004,14.654999s29.311005,5.171997 29.311005,5.171997s-6.897003,7.76001 -4.311005,12.932007s6.035004,8.618988 11.207001,7.757996s15.516998,-9.483002 24.138,-14.654999s24.139008,-12.069 37.069,-10.345001s30.172028,1.725006 30.172028,-9.481995c-3.448029,-9.481995 -24.138031,-9.483002 -34.48201,-12.069c-6.035004,-2.585999 -9.483002,-7.757996 -9.483002,-7.757996s0.862,-28.447998 3.447998,-33.621002c12.931,2.585999 57.758011,4.311981 65.517014,1.725006c8.620972,9.481995 19.827972,30.171997 19.827972,30.171997s-4.311005,11.205994 -7.759003,12.931c-6.895996,0.862 -48.276001,6.897003 -43.966003,24.138977c7.759003,8.620026 13.79303,6.03302 18.966003,4.310028s24.138,-8.620026 31.895996,-5.172028c4.311005,7.759003 3.447021,13.792999 6.033997,17.240997s6.896027,7.758026 13.792999,6.034027c6.035004,-6.896027 6.897003,-18.102997 9.483002,-22.413025c7.759003,-5.172974 10.344025,-6.895996 15.516998,-6.895996s18.966003,5.171997 26.725006,2.585999s12.932007,-12.069 0.862,-15.517975s-32.757996,-6.034027 -49.138,-20.689026c-8.621002,-16.378998 -12.069,-18.104004 -18.966003,-38.792999c9.482025,-7.759003 38.794006,-16.378998 86.207031,-117.240967c-4.311005,-11.207016 -5.173004,-16.379013 -5.173004,-16.379013s-18.103027,-12.931 -23.274994,-51.723999c-10.345001,-9.483002 -26.725006,-21.552002 -26.725006,-21.552002s0.862,-11.207993 7.759003,-20.690002c-9.481995,-10.345001 -36.207031,-25.860992 -36.207031,-86.206997c-16.378998,-10.344997 -49.138,-29.311001 -67.240967,-36.206999c-10.345016,2.586 -27.587006,7.759001 -49.138016,7.759001s-34.481995,13.792999 -34.481995,13.792999s-29.310013,106.030987 -59.48201,124.134991z"/>
   </g>
  </g>
  <g id="base">
   <path id="svg_3" d="m262.138,39.585999c0,0 35.345001,11.207001 53.447998,30.172005c3.447998,17.240997 6.895996,62.931999 31.895996,82.758995c-6.033997,24.138 -13.792999,43.964996 -31.033997,60.345001c12.931,-4.311005 20.690002,-12.931 32.759003,-34.483002c12.067993,7.759003 20.688995,14.654999 20.688995,14.654999s12.067993,31.897003 28.447998,66.378998c-8.619995,25.862 -42.240997,89.654999 -81.895996,111.207001c-1.723999,-9.483002 -2.584991,-13.792999 -1.723999,-18.104004c-8.621002,-6.895996 -25,-0.862 -30.173004,10.345001c3.447998,6.895996 10.345001,15.518005 10.345001,15.518005s-31.895996,11.205994 -65.516998,0.860992s-66.378998,-25.860992 -73.274994,-32.757996s-25,-50.860992 -27.585999,-62.067993s9.483002,-60.345016 19.827988,-69.828018c10.345001,7.758011 19.828003,14.655014 27.586014,14.655014c-12.069,-10.345001 -38.792999,-31.035004 -49.138008,-55.173004c6.896004,-12.931 38.793007,-73.276001 49.138008,-112.069004c4.309998,-7.757999 5.171997,-16.378998 25.862,-18.104s60.343994,-4.30899 60.343994,-4.30899z" fill="url(#svg_20)"/>
  </g>
  <g id="Feet">
   <path id="svg_4" d="m308.826996,355.966003c0,0 -5.171997,-6.897003 -18.964996,7.757996c6.033997,7.759003 34.481995,54.311005 34.481995,54.311005s-0.862,11.207001 -4.311005,14.654999c-10.345001,3.447998 -14.654999,6.033997 -20.688995,6.033997s-25.001007,6.033997 -25.862,11.207001s0,7.759003 6.895996,5.173004s26.723999,-9.481995 31.895996,-9.481995s12.932007,3.447998 12.932007,3.447998l-2.585999,-7.759003l0.860992,-5.173004c0,0 8.621002,12.932007 5.173004,26.725006c-2.585999,7.759003 1.723999,11.207001 1.723999,11.207001s5.171997,2.585999 11.207001,-19.828003c6.895996,-9.481995 11.208008,-12.069 19.828003,-10.345001s18.964996,2.585999 23.274994,2.585999s10.343994,-4.309998 -7.759003,-9.481995s-32.757996,-8.621002 -37.931,-15.518005s-28.446991,-41.378998 -30.17099,-65.516998z" fill="#ff7f00"/>
   <path id="svg_5" d="m214,381.826996l13.792999,5.173004c0,0 -3.447998,28.446991 -2.585999,34.481995s4.311005,11.208008 18.104004,12.932007s22.414001,4.30899 22.414001,7.757996s-7.759003,8.622009 -22.414001,2.587006c-12.931,0 -27.587006,1.723999 -35.345001,8.619995s-27.585999,18.96701 -31.033997,16.380005s0,-13.794006 8.620987,-19.828003c-11.207001,-0.860992 -29.310989,-3.447998 -29.310989,-3.447998s-14.654999,-2.585999 6.895996,-9.481995c22.414001,-0.862 38.792999,-3.447021 43.966003,-6.033997s12.067993,-7.761017 6.895996,-49.140015z" fill="#ff7f00"/>
   <g id="Highlights">
    <path id="svg_6" d="m194.171997,443.033997c0,0 -12.931,15.519012 -14.654999,19.828003s4.311005,4.309998 7.759003,0.860992c0,-5.17099 -2.587006,-4.309998 6.895996,-20.688995z" fill="url(#svg_18)"/>
    <path id="svg_7" d="m177.792999,437.862c0,0 -12.931,0 -18.104004,2.585999s0,5.173004 6.897003,5.173004c2.585999,-2.587006 -4.311005,-5.171997 11.207001,-7.759003z" fill="url(#svg_18)"/>
    <path id="svg_8" d="m216.447998,384.414001c0,0 4.311005,33.621002 -2.585999,42.240997c5.171997,-0.862 5.171997,-0.862 5.171997,-0.862l1.725006,-38.792999l-4.311005,-2.585999z" fill="url(#svg_18)"/>
    <path id="svg_9" d="m301.069,357.688995c0,0 -2.587006,1.725006 -6.035004,5.173004c2.587006,7.759003 16.380005,28.447998 16.380005,28.447998s-14.653992,-21.552002 -10.345001,-33.621002z" fill="url(#svg_18)"/>
    <path id="svg_10" d="m293.311005,441.311005c0,0 -20.020996,4.44101 -17.240997,11.207001c1.431,3.481995 6.895996,-1.725006 6.895996,-1.725006s-0.862,-5.171997 10.345001,-9.481995z" fill="url(#svg_18)"/>
   </g>
  </g>
  <g id="Wing">
   <path id="svg_11" d="m314,258.552002l6.033997,18.104004c0,0 39.656006,23.276001 59.483002,18.966003c6.895996,-3.447998 17.242004,-26.725006 4.311005,-50.000015s-11.208008,-26.723999 -12.932007,-31.895996c-4.311005,0.862 -9.481995,0 -9.481995,0s5.171997,3.447998 12.067993,19.828003s8.621002,41.37999 8.621002,46.551987s-0.862,9.483002 -11.207001,8.621002s-16.377991,0.859009 -56.895996,-30.174988z"/>
  </g>
  <g id="Eyes">
   <ellipse id="svg_12" ry="12.5" rx="6.897" cy="106.396" cx="247.621"/>
   <ellipse id="svg_13" ry="12.5" rx="6.466" cy="106.396" cx="192.017"/>
  </g>
  <g id="Beak">
   <path id="svg_14" d="m175.207001,144.759003c0,0 46.550995,-17.242004 80.171997,-6.035004c-11.207001,17.240997 -52.585999,55.171997 -52.585999,55.171997s-20.688995,-30.17099 -27.585999,-49.136993z"/>
   <g id="Art_1_">
    <path id="svg_15" d="m178.792999,148.207001c0,0 13.654999,-7.757996 60.207001,-1.723999c-5.171997,7.757996 -27.585999,34.481995 -36.207001,37.931c-7.757996,-6.897003 -17.966003,-22.414001 -24,-36.207001z" fill="url(#SVGID_4_)"/>
   </g>
   <g id="Highlight">
    <path id="svg_16" d="m201.069,149.069c0,0 -7.759003,5.171997 0,19.828003c1.723999,6.035004 -7.757996,1.723999 -14.654999,-16.378998c4.309998,-5.173004 6.895996,-6.036011 14.654999,-3.449005z" fill="#FFFFFF"/>
   </g>
  </g>
  <text xml:space="preserve" text-anchor="middle" font-family="Arial" font-size="24" id="svg_21" y="277" x="131" stroke-width="0" fill="#000000"/>
 </g>
</svg>